# xmcd CD database file
#
# Track frame offsets:
#	150
#	28550
#	58485
#	93623
#	169668
#	202110
#	237299
#	277410
#
# Disc length: 4143 seconds
#
# Revision: 6
# Processed by: cddbd v1.5.2PL0 Copyright (c) Steve Scherf et al.
# Submitted via: CDex 1.70beta2
#
DISCID=7b102d08
DTITLE=Charlie Haden, Liberation Music Orchestra - Not in Our Name (arr. Carla Bley)
DYEAR=2004
DGENRE=Jazz
TTITLE0=Not in Our Name
TTITLE1=This Is Not America
TTITLE2=Blue Anthem
TTITLE3=America the Beautiful (Medley)
TTITLE4=Amazing Graze
TTITLE5=Goin' Home (From the Largo of the New World Symphony)
TTITLE6=Throughout
TTITLE7=Adagio (The Adagio for Strings)
EXTD=YEAR: 2004
EXTT0=
EXTT1=
EXTT2=
EXTT3=
EXTT4=
EXTT5=
EXTT6=
EXTT7=
PLAYORDER=
